<svg id="Слой_1" data-name="Слой 1" xmlns="http://www.w3.org/2000/svg" viewBox="0 0 2349.34 2159.38"><defs><style>.cls-1,.cls-2{fill:#0065b1;}.cls-2{font-size:249.88px;font-family:BruskovayaPlain, Bruskovaya;}.cls-3{fill:#ee3f58;}</style></defs><path class="cls-1" d="M197.33,1042.57V1208.3h38.8V1042.57ZM208,1202.64a1.89,1.89,0,1,1-3.78,0V1048.25a1.89,1.89,0,1,1,3.78,0Zm10.65,0a1.89,1.89,0,1,1-3.78,0V1048.25a1.89,1.89,0,1,1,3.78,0Zm10.64,0a1.89,1.89,0,1,1-3.78,0V1048.25a1.89,1.89,0,1,1,3.78,0Z"/><polygon class="cls-1" points="239.41 1212.6 194.06 1212.6 195.78 1209.88 237.68 1209.88 239.41 1212.6"/><polygon class="cls-1" points="242.02 1217.16 191.44 1217.16 193.58 1213.81 239.89 1213.81 242.02 1217.16"/><polygon class="cls-1" points="245.43 1222.52 188.03 1222.52 190.75 1218.25 242.72 1218.25 245.43 1222.52"/><polygon class="cls-1" points="194.06 1038.29 239.41 1038.29 237.68 1041.01 195.78 1041.01 194.06 1038.29"/><polygon class="cls-1" points="191.44 1033.73 242.02 1033.73 239.89 1037.08 193.58 1037.08 191.44 1033.73"/><polygon class="cls-1" points="188.03 1028.37 245.43 1028.37 242.72 1032.64 190.75 1032.64 188.03 1028.37"/><path class="cls-1" d="M275.38,1042.57V1208.3h38.8V1042.57ZM286,1202.64a1.89,1.89,0,1,1-3.78,0V1048.25a1.89,1.89,0,1,1,3.78,0Zm10.65,0a1.89,1.89,0,1,1-3.78,0V1048.25a1.89,1.89,0,1,1,3.78,0Zm10.64,0a1.89,1.89,0,1,1-3.78,0V1048.25a1.89,1.89,0,1,1,3.78,0Z"/><polygon class="cls-1" points="317.45 1212.6 272.1 1212.6 273.83 1209.88 315.73 1209.88 317.45 1212.6"/><polygon class="cls-1" points="320.07 1217.16 269.49 1217.16 271.62 1213.81 317.93 1213.81 320.07 1217.16"/><polygon class="cls-1" points="323.48 1222.52 266.08 1222.52 268.79 1218.25 320.76 1218.25 323.48 1222.52"/><polygon class="cls-1" points="272.1 1038.29 317.45 1038.29 315.73 1041.01 273.83 1041.01 272.1 1038.29"/><polygon class="cls-1" points="269.49 1033.73 320.07 1033.73 317.93 1037.08 271.62 1037.08 269.49 1033.73"/><polygon class="cls-1" points="266.08 1028.37 323.48 1028.37 320.76 1032.64 268.79 1032.64 266.08 1028.37"/><path class="cls-1" d="M353.42,1042.57V1208.3h38.81V1042.57Zm10.65,160.07a1.89,1.89,0,1,1-3.78,0V1048.25a1.89,1.89,0,1,1,3.78,0Zm10.64,0a1.89,1.89,0,1,1-3.77,0V1048.25a1.89,1.89,0,1,1,3.77,0Zm10.65,0a1.89,1.89,0,1,1-3.78,0V1048.25a1.89,1.89,0,1,1,3.78,0Z"/><polygon class="cls-1" points="395.5 1212.6 350.15 1212.6 351.87 1209.88 393.78 1209.88 395.5 1212.6"/><polygon class="cls-1" points="398.12 1217.16 347.53 1217.16 349.67 1213.81 395.98 1213.81 398.12 1217.16"/><polygon class="cls-1" points="401.53 1222.52 344.12 1222.52 346.84 1218.25 398.81 1218.25 401.53 1222.52"/><polygon class="cls-1" points="350.15 1038.29 395.5 1038.29 393.78 1041.01 351.87 1041.01 350.15 1038.29"/><polygon class="cls-1" points="347.53 1033.73 398.12 1033.73 395.98 1037.08 349.67 1037.08 347.53 1033.73"/><polygon class="cls-1" points="344.12 1028.37 401.53 1028.37 398.81 1032.64 346.84 1032.64 344.12 1028.37"/><path class="cls-1" d="M431.47,1042.57V1208.3h38.8V1042.57Zm10.65,160.07a1.89,1.89,0,1,1-3.78,0V1048.25a1.89,1.89,0,1,1,3.78,0Zm10.64,0a1.89,1.89,0,1,1-3.78,0V1048.25a1.89,1.89,0,1,1,3.78,0Zm10.65,0a1.89,1.89,0,1,1-3.78,0V1048.25a1.89,1.89,0,1,1,3.78,0Z"/><polygon class="cls-1" points="473.55 1212.6 428.19 1212.6 429.92 1209.88 471.82 1209.88 473.55 1212.6"/><polygon class="cls-1" points="476.16 1217.16 425.58 1217.16 427.71 1213.81 474.03 1213.81 476.16 1217.16"/><polygon class="cls-1" points="479.57 1222.52 422.17 1222.52 424.89 1218.25 476.86 1218.25 479.57 1222.52"/><polygon class="cls-1" points="428.19 1038.29 473.55 1038.29 471.82 1041.01 429.92 1041.01 428.19 1038.29"/><polygon class="cls-1" points="425.58 1033.73 476.16 1033.73 474.03 1037.08 427.71 1037.08 425.58 1033.73"/><polygon class="cls-1" points="422.17 1028.37 479.57 1028.37 476.86 1032.64 424.89 1032.64 422.17 1028.37"/><rect class="cls-1" x="146.49" y="1014.17" width="374.61" height="5.56"/><rect class="cls-1" x="178.68" y="1226.99" width="310.24" height="8.33"/><rect class="cls-1" x="169.09" y="1239.05" width="329.42" height="8.33"/><rect class="cls-1" x="158.24" y="1250.94" width="351.13" height="8.33"/><rect class="cls-1" x="145.85" y="1262.93" width="375.9" height="8.33"/><rect class="cls-1" x="178.26" y="1023.46" width="311.08" height="2.78"/><path class="cls-1" d="M332,949.89c-5.19-1.5-5.44-3.25-5.44-5.11a5,5,0,0,1,5.31-4.91H332Z"/><path class="cls-1" d="M335.5,970.93V959.26c3.84,1.12,6.52,2.31,6.52,5.61C342,968.47,338.65,970.41,335.5,970.93Z"/><path class="cls-1" d="M333.8,902.78,183.58,999.07H484Zm24.61,77.47a34.71,34.71,0,1,1,7.46-11.06A34.8,34.8,0,0,1,358.41,980.25Zm-24.61-56a31.38,31.38,0,1,0,31.38,31.37A31.41,31.41,0,0,0,333.8,924.26Zm1.7,53.53v5.4H332v-5.38c-10.83-.63-15-8.16-15-14.78h8.39c0,5.28,3.41,7.34,6.57,7.89V958.3l-.15,0c-5.67-1.61-13.83-3.15-13.83-12.57,0-9.85,9.11-12.21,14-12.65v-4.89h3.5V933c4.77.41,13.42,2.68,13.42,12.56h-8.48c-.42-4.33-2.31-5.39-4.94-5.65v10.77c8.49,1.66,15.07,5.31,15.07,12.92C350.57,970.8,346,977.07,335.5,977.79Z"/><path class="cls-1" d="M333.8,888.12,146.4,1010.41H521.21Zm0,6.64,168.73,110.09H165.07Z"/><text class="cls-2" transform="translate(668.79 1209.02)">Юрист<tspan class="cls-3" x="640.69" y="0">Экспресс</tspan></text></svg>