<svg id="Слой_1" data-name="Слой 1" xmlns="http://www.w3.org/2000/svg" viewBox="0 0 419.42 148.58"><defs><style>.cls-1{fill:#e73057;}.cls-2{fill:#aa7575;}.cls-2,.cls-3{fill-rule:evenodd;}.cls-3,.cls-4{fill:#2962ac;}</style></defs><path class="cls-1" d="M112.17,287.55c0-3.51,2-5.85,5.73-5.85H149c7.49,0,10.74-2.6,12.43-5.46,2.73,3.77,5.86,5.46,14.58,5.46h28.81c3.64,0,5.73,2.34,5.73,5.85v7.27h12v-8.05c0-12.47-6-18.84-17.7-18.84H173.56c-4.16,0-5.72-2.73-5.72-4.42V259.1h-12v4.41c0,1.56-1.56,4.42-5.73,4.42H117.25c-11.72,0-17,6.63-17,18.84v8.05h12Z" transform="translate(-100.2 -259.1)"/><path class="cls-2" d="M161.21,391.74l-.77.44c.09.47.16.95.22,1.41l1.83-1.11Z" transform="translate(-100.2 -259.1)"/><path class="cls-2" d="M161.21,391.74l-.91-.51c.06.31.1.63.14.95s.16.95.22,1.41l1.83-1.11Z" transform="translate(-100.2 -259.1)"/><path class="cls-3" d="M199.53,385.6l-38.05,21.82,0-.07-.19.33-38-21.93,6.89-11.93,30.14,17.41c.06.31.1.63.14.95s.16.95.22,1.41l1.83-1.11-1.28-.74-.91-.51c-1.78-11-5.75-25.28-10-27.57-4.55-2.49-10.51-1.06-14.35-1.62s-3.58-2.71-3.51-3.31,2.28,1.23,5.86-.31,7.44-5.39,8.74-8.71,1.17-3.46.85-7.65.94-8.89,3.22-11.26,2.34-3.62,2.34-3.62a26.92,26.92,0,0,0-5.85.32c-2.54.5-7,1.21-8.08,3a4.54,4.54,0,0,0,.42,4.89,5.39,5.39,0,0,1,.63,3s-1.62-.66-1.18,1.81,4.24,5.32,4.24,5.32-1.18,2.23-5.21,3.3a13.85,13.85,0,0,1-6.65.24c.13,0,.37,0,.8.06a31,31,0,0,0,5.95-1.26c1-.3,1.65-2.57.33-2.87-.94-.23-4,.45-5.74.87a7.34,7.34,0,0,0,.85-.45,15.52,15.52,0,0,1,4-1.49s.58-.75-.85-1.07-4.89.42-4.89.42-.13-.1,1.06-.85a6,6,0,0,1,3-.62,10,10,0,0,0,.21-1.92c-.07-.39-3.24-.36-4.77-.53s-1.26-1.43-.64-3,3.38-2.63,4.38-4.35.33-4.77-.42-4.89-2,1.42-3.42,4.46-2.34,3.61-2.34,3.61L126.87,331s.32.46,1.07-.85,5-4.7,9.36-5.73,14.74.88,16.49-.09,3.33-9.33,3.09-10.31-3.68-1.67-13.28-2.47c-9.33-.75-15.88,6.44-16.27,6.88a20.73,20.73,0,0,1,8.5-6.77c6-2.79,15.63-1.14,15.63-1.14a3.4,3.4,0,0,0,2.24-2.66c.45-2.18-2.24-8.69-9.55-9.8-7.11-1.08-13.86,5.73-14.25,6.13.16-.34,6.45-13.59,31-9.09,24.92,4.58,28.46,22.59,28.46,22.59s12.72-2.61,9.64,17.57-13.62,17.84-13.62,17.84l3,8.08s-5.19-1.85-8.09,3c-2.21,3.64,3.76,9.91,6.8,12.77l5.53-3.17Z" transform="translate(-100.2 -259.1)"/><path class="cls-2" d="M161.21,391.74l-.91-.51c.06.31.1.63.14.95s.16.95.22,1.41l1.83-1.11Zm-28.09-45.95c-.69.16-1.17.29-1.17.29S132.22,346.21,133.12,345.79Z" transform="translate(-100.2 -259.1)"/><path class="cls-4" d="M294.78,291.53v7.6h-3.42c-22.9,0-33.47,8.81-33.47,29.95v5.83c0,20.81,10.57,29.84,33.47,29.84h3.42v7.93h21.35v-7.93h3.42c22.79,0,33.47-9,33.47-29.84v-5.83c0-21.14-10.68-29.95-33.47-29.95h-3.42v-7.6Zm24.77,22.57c9,0,12,4.74,12,14.65v6.49c0,10.46-3.3,14.54-12,14.54h-3.42V314.1Zm-40.19,21.14v-6.49c0-9.91,3-14.65,12-14.65h3.42v35.68h-3.42C282.55,349.78,279.36,345.7,279.36,335.24Z" transform="translate(-100.2 -259.1)"/><path class="cls-4" d="M385.18,372.68V313.55h27.63v59.13h21.36V295.61H363.82v77.07Z" transform="translate(-100.2 -259.1)"/><path class="cls-4" d="M497.27,372.68h22.35L496,295.61H469.08l-24.44,77.07H467.1l4.18-15.2h21.91Zm-14.54-57.26,7.6,28H474.26Z" transform="translate(-100.2 -259.1)"/></svg>